<svg xmlns="http://www.w3.org/2000/svg" width="500" height="500" style="width:100%;height:100%;transform:translate3d(0,0,0);content-visibility:visible" viewBox="0 0 500 500"><defs><clipPath id="a"><path d="M0 0h500v500H0z"/></clipPath><clipPath id="c"><path d="M0 0h500v500H0z"/></clipPath><clipPath id="b"><path d="M0 0h500v500H0z"/></clipPath></defs><g clip-path="url(#a)"><g clip-path="url(#b)" style="display:block"><g class="primary design" style="display:none"><path class="primary"/><path fill="none" class="primary"/></g><g class="primary design" style="display:none"><path class="primary"/><path fill="none" class="primary"/></g><g class="primary design" style="display:none"><path fill="none" class="primary"/></g><g class="primary design" style="display:none"><path class="primary"/></g><g class="primary design" style="display:none"><path class="primary"/><path fill="none" class="primary"/><path fill="none" class="primary"/></g><g class="primary design" style="display:none"><path fill="#121330" d="M359.355 270.833c-45.951 0-83.32 37.369-83.32 83.32s37.369 83.32 83.32 83.32 83.32-37.369 83.32-83.32-37.369-83.32-83.32-83.32" class="primary"/></g><g class="primary design" style="display:none"><path fill="#121330" d="M317.695 218.747h83.32c20.101 0 36.453-16.351 36.453-36.452v-83.32c0-20.101-16.352-36.453-36.453-36.453h-83.32c-20.1 0-36.452 16.352-36.452 36.453v83.32c0 20.1 16.351 36.452 36.452 36.452" class="primary"/></g><g class="primary design" style="display:none"><path fill="#121330" d="M164.574 70.335c-5.583-9.665-21.455-9.665-27.038 0l-72.155 124.98a15.62 15.62 0 0 0 0 15.623 15.61 15.61 0 0 0 13.519 7.81h144.31a15.61 15.61 0 0 0 13.519-7.81 15.62 15.62 0 0 0 0-15.623z" class="primary"/></g><g class="primary design" style="display:none"><path fill="#121330" d="M225.668 282.144c-8.144-8.145-21.309-8.145-29.454 0l-45.159 45.16-45.16-45.16c-8.144-8.145-21.309-8.145-29.453 0-8.145 8.144-8.145 21.309 0 29.454l45.16 45.159-45.16 45.16c-8.145 8.144-8.145 21.309 0 29.453a20.77 20.77 0 0 0 14.727 6.103 20.77 20.77 0 0 0 14.727-6.103l45.159-45.16 45.16 45.16a20.77 20.77 0 0 0 14.726 6.103 20.77 20.77 0 0 0 14.727-6.103c8.145-8.144 8.145-21.309 0-29.454l-45.16-45.159 45.16-45.16c8.145-8.144 8.145-21.309 0-29.453" class="primary"/></g><g class="primary design" style="display:block"><path fill="#121330" d="M359.355 270.833c-45.951 0-83.32 37.369-83.32 83.32s37.369 83.32 83.32 83.32 83.32-37.369 83.32-83.32-37.369-83.32-83.32-83.32" class="primary"/></g><g class="primary design" style="display:block"><path fill="#121330" d="M317.695 218.747h83.32c20.101 0 36.453-16.351 36.453-36.452v-83.32c0-20.101-16.352-36.453-36.453-36.453h-83.32c-20.1 0-36.452 16.352-36.452 36.453v83.32c0 20.1 16.351 36.452 36.452 36.452" class="primary"/></g><g class="primary design" style="display:block"><path fill="#121330" d="M164.574 70.335c-5.583-9.665-21.455-9.665-27.038 0l-72.155 124.98a15.62 15.62 0 0 0 0 15.623 15.61 15.61 0 0 0 13.519 7.81h144.31a15.61 15.61 0 0 0 13.519-7.81 15.62 15.62 0 0 0 0-15.623z" class="primary"/></g><g class="primary design" style="display:block"><path fill="#121330" d="M225.668 282.144c-8.144-8.145-21.309-8.145-29.454 0l-45.159 45.16-45.16-45.16c-8.144-8.145-21.309-8.145-29.453 0-8.145 8.144-8.145 21.309 0 29.454l45.16 45.159-45.16 45.16c-8.145 8.144-8.145 21.309 0 29.453a20.77 20.77 0 0 0 14.727 6.103 20.77 20.77 0 0 0 14.727-6.103l45.159-45.16 45.16 45.16a20.77 20.77 0 0 0 14.726 6.103 20.77 20.77 0 0 0 14.727-6.103c8.145-8.144 8.145-21.309 0-29.454l-45.16-45.159 45.16-45.16c8.145-8.144 8.145-21.309 0-29.453" class="primary"/></g></g><g clip-path="url(#c)" style="display:none"><g class="primary design" style="display:none"><path class="primary"/><path fill="none" class="primary"/></g><g fill="none" class="primary design" style="display:none"><path class="primary"/><path class="primary"/></g><g class="primary design" style="display:none"><path class="primary"/><path fill="none" class="primary"/></g><g class="primary design" style="display:none"><path class="primary"/><path fill="none" class="primary"/></g><g class="primary design" style="display:none"><path class="primary"/></g><g class="primary design" style="display:none"><path class="primary"/></g><g class="primary design" style="display:none"><path class="primary"/></g><g class="primary design" style="display:none"><path class="primary"/></g></g></g></svg>